<mxfile host="app.diagrams.net" agent="Mozilla/5.0 (Windows NT 10.0; Win64; x64) AppleWebKit/537.36 (KHTML, like Gecko) Chrome/135.0.0.0 Safari/537.36 Edg/135.0.0.0" version="26.2.9" pages="2">
  <diagram name="第 1 页" id="vqiY9m47QqvkBvZVkrBw">
    <mxGraphModel dx="804" dy="381" grid="1" gridSize="10" guides="1" tooltips="1" connect="1" arrows="1" fold="1" page="1" pageScale="1" pageWidth="827" pageHeight="1169" math="0" shadow="0">
      <root>
        <mxCell id="0" />
        <mxCell id="1" parent="0" />
        <mxCell id="JPwLWQPu6VZcBWfvx7Lt-1" value="&lt;p class=&quot;MsoNormal&quot;&gt;&lt;span style=&quot;mso-spacerun:&#39;yes&#39;;font-family:宋体;mso-ansi-font-weight:normal;&lt;br/&gt;mso-bidi-font-weight:bold;font-size:10.5000pt;mso-font-kerning:1.0000pt;&quot;&gt;国际物流货物跟踪可视化平台&lt;/span&gt;&lt;/p&gt;" style="rounded=1;whiteSpace=wrap;html=1;" vertex="1" parent="1">
          <mxGeometry x="240" y="100" width="200" height="20" as="geometry" />
        </mxCell>
        <mxCell id="JPwLWQPu6VZcBWfvx7Lt-2" value="计划与订舱" style="rounded=0;whiteSpace=wrap;html=1;" vertex="1" parent="1">
          <mxGeometry x="180" y="210" width="20" height="140" as="geometry" />
        </mxCell>
        <mxCell id="JPwLWQPu6VZcBWfvx7Lt-3" value="物流查询" style="rounded=0;whiteSpace=wrap;html=1;" vertex="1" parent="1">
          <mxGeometry x="210" y="210" width="20" height="140" as="geometry" />
        </mxCell>
        <mxCell id="JPwLWQPu6VZcBWfvx7Lt-4" value="其他服务" style="rounded=0;whiteSpace=wrap;html=1;" vertex="1" parent="1">
          <mxGeometry x="240" y="210" width="20" height="140" as="geometry" />
        </mxCell>
        <mxCell id="JPwLWQPu6VZcBWfvx7Lt-5" value="资源" style="rounded=0;whiteSpace=wrap;html=1;" vertex="1" parent="1">
          <mxGeometry x="270" y="210" width="20" height="140" as="geometry" />
        </mxCell>
        <mxCell id="JPwLWQPu6VZcBWfvx7Lt-6" value="关于我们" style="rounded=0;whiteSpace=wrap;html=1;" vertex="1" parent="1">
          <mxGeometry x="300" y="210" width="20" height="140" as="geometry" />
        </mxCell>
        <mxCell id="JPwLWQPu6VZcBWfvx7Lt-7" value="数据管理" style="rounded=0;whiteSpace=wrap;html=1;" vertex="1" parent="1">
          <mxGeometry x="360" y="210" width="20" height="140" as="geometry" />
        </mxCell>
        <mxCell id="JPwLWQPu6VZcBWfvx7Lt-8" value="用户管理" style="rounded=0;whiteSpace=wrap;html=1;" vertex="1" parent="1">
          <mxGeometry x="390" y="210" width="20" height="140" as="geometry" />
        </mxCell>
        <mxCell id="JPwLWQPu6VZcBWfvx7Lt-9" value="运输管理" style="rounded=0;whiteSpace=wrap;html=1;" vertex="1" parent="1">
          <mxGeometry x="420" y="210" width="20" height="140" as="geometry" />
        </mxCell>
        <mxCell id="JPwLWQPu6VZcBWfvx7Lt-10" value="仓储管理" style="rounded=0;whiteSpace=wrap;html=1;" vertex="1" parent="1">
          <mxGeometry x="450" y="210" width="20" height="140" as="geometry" />
        </mxCell>
        <mxCell id="JPwLWQPu6VZcBWfvx7Lt-11" value="预警与通知" style="rounded=0;whiteSpace=wrap;html=1;" vertex="1" parent="1">
          <mxGeometry x="480" y="210" width="20" height="140" as="geometry" />
        </mxCell>
        <mxCell id="JPwLWQPu6VZcBWfvx7Lt-18" style="edgeStyle=orthogonalEdgeStyle;rounded=0;orthogonalLoop=1;jettySize=auto;html=1;exitX=0.5;exitY=1;exitDx=0;exitDy=0;" edge="1" parent="1" source="JPwLWQPu6VZcBWfvx7Lt-12" target="JPwLWQPu6VZcBWfvx7Lt-2">
          <mxGeometry relative="1" as="geometry" />
        </mxCell>
        <mxCell id="JPwLWQPu6VZcBWfvx7Lt-19" style="edgeStyle=orthogonalEdgeStyle;rounded=0;orthogonalLoop=1;jettySize=auto;html=1;exitX=0.5;exitY=1;exitDx=0;exitDy=0;entryX=0.5;entryY=0;entryDx=0;entryDy=0;" edge="1" parent="1" source="JPwLWQPu6VZcBWfvx7Lt-12" target="JPwLWQPu6VZcBWfvx7Lt-3">
          <mxGeometry relative="1" as="geometry" />
        </mxCell>
        <mxCell id="JPwLWQPu6VZcBWfvx7Lt-20" style="edgeStyle=orthogonalEdgeStyle;rounded=0;orthogonalLoop=1;jettySize=auto;html=1;exitX=0.5;exitY=1;exitDx=0;exitDy=0;entryX=0.5;entryY=0;entryDx=0;entryDy=0;" edge="1" parent="1" source="JPwLWQPu6VZcBWfvx7Lt-12" target="JPwLWQPu6VZcBWfvx7Lt-4">
          <mxGeometry relative="1" as="geometry" />
        </mxCell>
        <mxCell id="JPwLWQPu6VZcBWfvx7Lt-21" style="edgeStyle=orthogonalEdgeStyle;rounded=0;orthogonalLoop=1;jettySize=auto;html=1;exitX=0.5;exitY=1;exitDx=0;exitDy=0;" edge="1" parent="1" source="JPwLWQPu6VZcBWfvx7Lt-12" target="JPwLWQPu6VZcBWfvx7Lt-5">
          <mxGeometry relative="1" as="geometry" />
        </mxCell>
        <mxCell id="JPwLWQPu6VZcBWfvx7Lt-22" style="edgeStyle=orthogonalEdgeStyle;rounded=0;orthogonalLoop=1;jettySize=auto;html=1;exitX=0.5;exitY=1;exitDx=0;exitDy=0;" edge="1" parent="1" source="JPwLWQPu6VZcBWfvx7Lt-12" target="JPwLWQPu6VZcBWfvx7Lt-6">
          <mxGeometry relative="1" as="geometry" />
        </mxCell>
        <mxCell id="JPwLWQPu6VZcBWfvx7Lt-12" value="用户" style="rounded=0;whiteSpace=wrap;html=1;" vertex="1" parent="1">
          <mxGeometry x="210" y="150" width="80" height="20" as="geometry" />
        </mxCell>
        <mxCell id="JPwLWQPu6VZcBWfvx7Lt-25" style="edgeStyle=orthogonalEdgeStyle;rounded=0;orthogonalLoop=1;jettySize=auto;html=1;exitX=0.5;exitY=1;exitDx=0;exitDy=0;entryX=0.5;entryY=0;entryDx=0;entryDy=0;" edge="1" parent="1" source="JPwLWQPu6VZcBWfvx7Lt-13" target="JPwLWQPu6VZcBWfvx7Lt-7">
          <mxGeometry relative="1" as="geometry" />
        </mxCell>
        <mxCell id="JPwLWQPu6VZcBWfvx7Lt-26" style="edgeStyle=orthogonalEdgeStyle;rounded=0;orthogonalLoop=1;jettySize=auto;html=1;exitX=0.5;exitY=1;exitDx=0;exitDy=0;" edge="1" parent="1" source="JPwLWQPu6VZcBWfvx7Lt-13" target="JPwLWQPu6VZcBWfvx7Lt-8">
          <mxGeometry relative="1" as="geometry" />
        </mxCell>
        <mxCell id="JPwLWQPu6VZcBWfvx7Lt-27" style="edgeStyle=orthogonalEdgeStyle;rounded=0;orthogonalLoop=1;jettySize=auto;html=1;exitX=0.5;exitY=1;exitDx=0;exitDy=0;" edge="1" parent="1" source="JPwLWQPu6VZcBWfvx7Lt-13" target="JPwLWQPu6VZcBWfvx7Lt-9">
          <mxGeometry relative="1" as="geometry" />
        </mxCell>
        <mxCell id="JPwLWQPu6VZcBWfvx7Lt-28" style="edgeStyle=orthogonalEdgeStyle;rounded=0;orthogonalLoop=1;jettySize=auto;html=1;exitX=0.5;exitY=1;exitDx=0;exitDy=0;" edge="1" parent="1" source="JPwLWQPu6VZcBWfvx7Lt-13" target="JPwLWQPu6VZcBWfvx7Lt-10">
          <mxGeometry relative="1" as="geometry" />
        </mxCell>
        <mxCell id="JPwLWQPu6VZcBWfvx7Lt-29" style="edgeStyle=orthogonalEdgeStyle;rounded=0;orthogonalLoop=1;jettySize=auto;html=1;exitX=0.5;exitY=1;exitDx=0;exitDy=0;" edge="1" parent="1" source="JPwLWQPu6VZcBWfvx7Lt-13" target="JPwLWQPu6VZcBWfvx7Lt-11">
          <mxGeometry relative="1" as="geometry" />
        </mxCell>
        <mxCell id="JPwLWQPu6VZcBWfvx7Lt-13" value="管理员" style="rounded=0;whiteSpace=wrap;html=1;" vertex="1" parent="1">
          <mxGeometry x="390" y="150" width="80" height="20" as="geometry" />
        </mxCell>
        <mxCell id="JPwLWQPu6VZcBWfvx7Lt-16" style="edgeStyle=orthogonalEdgeStyle;rounded=0;orthogonalLoop=1;jettySize=auto;html=1;exitX=0.5;exitY=1;exitDx=0;exitDy=0;" edge="1" parent="1" source="JPwLWQPu6VZcBWfvx7Lt-12" target="JPwLWQPu6VZcBWfvx7Lt-12">
          <mxGeometry relative="1" as="geometry" />
        </mxCell>
        <mxCell id="JPwLWQPu6VZcBWfvx7Lt-23" value="" style="endArrow=none;html=1;rounded=0;entryX=0.5;entryY=1;entryDx=0;entryDy=0;exitX=0.5;exitY=0;exitDx=0;exitDy=0;edgeStyle=orthogonalEdgeStyle;" edge="1" parent="1" source="JPwLWQPu6VZcBWfvx7Lt-12" target="JPwLWQPu6VZcBWfvx7Lt-1">
          <mxGeometry width="50" height="50" relative="1" as="geometry">
            <mxPoint x="390" y="260" as="sourcePoint" />
            <mxPoint x="440" y="210" as="targetPoint" />
          </mxGeometry>
        </mxCell>
        <mxCell id="JPwLWQPu6VZcBWfvx7Lt-24" value="" style="endArrow=none;html=1;rounded=0;entryX=0.5;entryY=1;entryDx=0;entryDy=0;exitX=0.5;exitY=0;exitDx=0;exitDy=0;edgeStyle=orthogonalEdgeStyle;" edge="1" parent="1" source="JPwLWQPu6VZcBWfvx7Lt-13" target="JPwLWQPu6VZcBWfvx7Lt-1">
          <mxGeometry width="50" height="50" relative="1" as="geometry">
            <mxPoint x="320" y="210" as="sourcePoint" />
            <mxPoint x="370" y="160" as="targetPoint" />
          </mxGeometry>
        </mxCell>
      </root>
    </mxGraphModel>
  </diagram>
  <diagram id="-r55dFtYJ0t7bKzt8oJF" name="第 2 页">
    <mxGraphModel dx="1173" dy="1724" grid="1" gridSize="10" guides="1" tooltips="1" connect="1" arrows="1" fold="1" page="1" pageScale="1" pageWidth="827" pageHeight="1169" math="0" shadow="0">
      <root>
        <mxCell id="0" />
        <mxCell id="1" parent="0" />
        <mxCell id="YhVgkfu6lUTvefnjvwKQ-2" value="" style="rounded=0;whiteSpace=wrap;html=1;" vertex="1" parent="1">
          <mxGeometry x="140" y="-40" width="510" height="470" as="geometry" />
        </mxCell>
        <mxCell id="YhVgkfu6lUTvefnjvwKQ-3" value="&lt;b&gt;展示层&lt;/b&gt;" style="rounded=0;whiteSpace=wrap;html=1;" vertex="1" parent="1">
          <mxGeometry x="160" width="60" height="30" as="geometry" />
        </mxCell>
        <mxCell id="YhVgkfu6lUTvefnjvwKQ-4" value="&lt;b&gt;应用层&lt;/b&gt;" style="rounded=0;whiteSpace=wrap;html=1;" vertex="1" parent="1">
          <mxGeometry x="160" y="130" width="60" height="30" as="geometry" />
        </mxCell>
        <mxCell id="YhVgkfu6lUTvefnjvwKQ-5" value="&lt;b&gt;数据层&lt;/b&gt;" style="rounded=0;whiteSpace=wrap;html=1;" vertex="1" parent="1">
          <mxGeometry x="160" y="250" width="60" height="30" as="geometry" />
        </mxCell>
        <mxCell id="YhVgkfu6lUTvefnjvwKQ-6" value="&lt;b&gt;感知层&lt;/b&gt;" style="rounded=0;whiteSpace=wrap;html=1;" vertex="1" parent="1">
          <mxGeometry x="160" y="370" width="60" height="30" as="geometry" />
        </mxCell>
        <mxCell id="YhVgkfu6lUTvefnjvwKQ-8" value="" style="rounded=0;whiteSpace=wrap;html=1;" vertex="1" parent="1">
          <mxGeometry x="270" y="80" width="360" height="90" as="geometry" />
        </mxCell>
        <mxCell id="YhVgkfu6lUTvefnjvwKQ-9" value="物流查询" style="rounded=0;whiteSpace=wrap;html=1;" vertex="1" parent="1">
          <mxGeometry x="400" y="90" width="100" height="30" as="geometry" />
        </mxCell>
        <mxCell id="YhVgkfu6lUTvefnjvwKQ-10" value="运输管理" style="rounded=0;whiteSpace=wrap;html=1;" vertex="1" parent="1">
          <mxGeometry x="400" y="130" width="100" height="30" as="geometry" />
        </mxCell>
        <mxCell id="YhVgkfu6lUTvefnjvwKQ-11" value="仓储管理" style="rounded=0;whiteSpace=wrap;html=1;" vertex="1" parent="1">
          <mxGeometry x="520" y="130" width="100" height="30" as="geometry" />
        </mxCell>
        <mxCell id="YhVgkfu6lUTvefnjvwKQ-12" value="数据管理" style="rounded=0;whiteSpace=wrap;html=1;" vertex="1" parent="1">
          <mxGeometry x="280" y="130" width="100" height="30" as="geometry" />
        </mxCell>
        <mxCell id="YhVgkfu6lUTvefnjvwKQ-13" value="" style="rounded=0;whiteSpace=wrap;html=1;" vertex="1" parent="1">
          <mxGeometry x="270" y="-30" width="360" height="90" as="geometry" />
        </mxCell>
        <mxCell id="YhVgkfu6lUTvefnjvwKQ-15" value="最佳线路展示" style="rounded=0;whiteSpace=wrap;html=1;" vertex="1" parent="1">
          <mxGeometry x="280" y="-20" width="100" height="30" as="geometry" />
        </mxCell>
        <mxCell id="YhVgkfu6lUTvefnjvwKQ-16" value="车辆货物实时状态" style="rounded=0;whiteSpace=wrap;html=1;" vertex="1" parent="1">
          <mxGeometry x="430" y="-20" width="130" height="30" as="geometry" />
        </mxCell>
        <mxCell id="YhVgkfu6lUTvefnjvwKQ-17" value="订单状态展示" style="rounded=0;whiteSpace=wrap;html=1;" vertex="1" parent="1">
          <mxGeometry x="320" y="20" width="130" height="30" as="geometry" />
        </mxCell>
        <mxCell id="YhVgkfu6lUTvefnjvwKQ-18" value="仓储情况展示" style="rounded=0;whiteSpace=wrap;html=1;" vertex="1" parent="1">
          <mxGeometry x="490" y="20" width="130" height="30" as="geometry" />
        </mxCell>
        <mxCell id="YhVgkfu6lUTvefnjvwKQ-48" style="edgeStyle=orthogonalEdgeStyle;rounded=0;orthogonalLoop=1;jettySize=auto;html=1;exitX=0.5;exitY=0;exitDx=0;exitDy=0;entryX=0.5;entryY=1;entryDx=0;entryDy=0;" edge="1" parent="1" source="YhVgkfu6lUTvefnjvwKQ-19" target="YhVgkfu6lUTvefnjvwKQ-33">
          <mxGeometry relative="1" as="geometry" />
        </mxCell>
        <mxCell id="YhVgkfu6lUTvefnjvwKQ-19" value="" style="rounded=0;whiteSpace=wrap;html=1;" vertex="1" parent="1">
          <mxGeometry x="270" y="310" width="360" height="110" as="geometry" />
        </mxCell>
        <mxCell id="YhVgkfu6lUTvefnjvwKQ-25" value="" style="rounded=0;whiteSpace=wrap;html=1;" vertex="1" parent="1">
          <mxGeometry x="280" y="320" width="160" height="90" as="geometry" />
        </mxCell>
        <mxCell id="YhVgkfu6lUTvefnjvwKQ-26" value="传感器网络" style="rounded=0;whiteSpace=wrap;html=1;" vertex="1" parent="1">
          <mxGeometry x="325" y="370" width="70" height="30" as="geometry" />
        </mxCell>
        <mxCell id="YhVgkfu6lUTvefnjvwKQ-27" value="RFID" style="rounded=0;whiteSpace=wrap;html=1;" vertex="1" parent="1">
          <mxGeometry x="380" y="330" width="50" height="30" as="geometry" />
        </mxCell>
        <mxCell id="YhVgkfu6lUTvefnjvwKQ-28" value="&lt;h4&gt;&lt;span style=&quot;font-family: 宋体; font-size: 12pt;&quot;&gt;GIS&lt;/span&gt;&lt;/h4&gt;" style="rounded=0;whiteSpace=wrap;html=1;" vertex="1" parent="1">
          <mxGeometry x="290" y="330" width="50" height="30" as="geometry" />
        </mxCell>
        <mxCell id="YhVgkfu6lUTvefnjvwKQ-29" value="" style="rounded=0;whiteSpace=wrap;html=1;" vertex="1" parent="1">
          <mxGeometry x="460" y="340" width="160" height="50" as="geometry" />
        </mxCell>
        <mxCell id="YhVgkfu6lUTvefnjvwKQ-30" value="电子标签" style="rounded=0;whiteSpace=wrap;html=1;" vertex="1" parent="1">
          <mxGeometry x="470" y="350" width="50" height="30" as="geometry" />
        </mxCell>
        <mxCell id="YhVgkfu6lUTvefnjvwKQ-31" value="条码扫描器" style="rounded=0;whiteSpace=wrap;html=1;" vertex="1" parent="1">
          <mxGeometry x="539.5" y="350" width="71" height="30" as="geometry" />
        </mxCell>
        <mxCell id="YhVgkfu6lUTvefnjvwKQ-33" value="" style="rounded=0;whiteSpace=wrap;html=1;" vertex="1" parent="1">
          <mxGeometry x="270" y="190" width="360" height="100" as="geometry" />
        </mxCell>
        <mxCell id="YhVgkfu6lUTvefnjvwKQ-49" style="edgeStyle=orthogonalEdgeStyle;rounded=0;orthogonalLoop=1;jettySize=auto;html=1;exitX=1;exitY=0.5;exitDx=0;exitDy=0;entryX=0;entryY=0.5;entryDx=0;entryDy=0;" edge="1" parent="1" source="YhVgkfu6lUTvefnjvwKQ-34" target="YhVgkfu6lUTvefnjvwKQ-35">
          <mxGeometry relative="1" as="geometry" />
        </mxCell>
        <mxCell id="YhVgkfu6lUTvefnjvwKQ-34" value="" style="rounded=0;whiteSpace=wrap;html=1;" vertex="1" parent="1">
          <mxGeometry x="280" y="200" width="160" height="80" as="geometry" />
        </mxCell>
        <mxCell id="YhVgkfu6lUTvefnjvwKQ-35" value="&lt;font style=&quot;font-size: 24px;&quot;&gt;MySQL&lt;/font&gt;" style="rounded=0;whiteSpace=wrap;html=1;" vertex="1" parent="1">
          <mxGeometry x="460" y="200" width="160" height="80" as="geometry" />
        </mxCell>
        <mxCell id="YhVgkfu6lUTvefnjvwKQ-36" value="&lt;span style=&quot;scrollbar-color: transparent transparent; margin: 0px; padding: 0px; border: 0px; font-variant-numeric: inherit; font-variant-east-asian: inherit; font-variant-alternates: inherit; font-variant-position: inherit; font-variant-emoji: inherit; font-stretch: inherit; line-height: inherit; font-optical-sizing: inherit; font-size-adjust: inherit; font-kerning: inherit; font-feature-settings: inherit; font-variation-settings: inherit; vertical-align: baseline; color: rgba(0, 0, 0, 0.9); text-align: left; white-space-collapse: preserve; background-color: rgb(255, 255, 255);&quot; class=&quot;&quot;&gt;&lt;font style=&quot;font-size: 12px;&quot; face=&quot;Helvetica&quot;&gt;互联网技术&lt;/font&gt;&lt;/span&gt;" style="rounded=0;whiteSpace=wrap;html=1;" vertex="1" parent="1">
          <mxGeometry x="310" y="230" width="90" height="20" as="geometry" />
        </mxCell>
        <mxCell id="YhVgkfu6lUTvefnjvwKQ-37" value="&lt;div style=&quot;text-align: left;&quot;&gt;&lt;font style=&quot;color: rgb(0, 0, 0);&quot;&gt;&lt;span style=&quot;white-space-collapse: preserve; background-color: rgb(255, 255, 255);&quot;&gt;M2M技术&lt;/span&gt;&lt;/font&gt;&lt;/div&gt;" style="rounded=0;whiteSpace=wrap;html=1;" vertex="1" parent="1">
          <mxGeometry x="310" y="205" width="90" height="20" as="geometry" />
        </mxCell>
        <mxCell id="YhVgkfu6lUTvefnjvwKQ-38" value="&lt;div style=&quot;text-align: left;&quot;&gt;&lt;span style=&quot;white-space-collapse: preserve; background-color: rgb(255, 255, 255);&quot;&gt;&lt;font style=&quot;color: rgb(0, 0, 0);&quot;&gt;网络爬虫技术&lt;/font&gt;&lt;/span&gt;&lt;/div&gt;" style="rounded=0;whiteSpace=wrap;html=1;" vertex="1" parent="1">
          <mxGeometry x="310" y="255" width="90" height="20" as="geometry" />
        </mxCell>
        <mxCell id="YhVgkfu6lUTvefnjvwKQ-39" value="" style="endArrow=none;dashed=1;html=1;dashPattern=1 3;strokeWidth=2;rounded=0;entryX=0;entryY=0.5;entryDx=0;entryDy=0;exitX=1;exitY=0.5;exitDx=0;exitDy=0;" edge="1" parent="1" source="YhVgkfu6lUTvefnjvwKQ-3" target="YhVgkfu6lUTvefnjvwKQ-13">
          <mxGeometry width="50" height="50" relative="1" as="geometry">
            <mxPoint x="200" y="50" as="sourcePoint" />
            <mxPoint x="250" as="targetPoint" />
          </mxGeometry>
        </mxCell>
        <mxCell id="YhVgkfu6lUTvefnjvwKQ-40" value="" style="endArrow=none;dashed=1;html=1;dashPattern=1 3;strokeWidth=2;rounded=0;entryX=0;entryY=0.5;entryDx=0;entryDy=0;exitX=1;exitY=0.5;exitDx=0;exitDy=0;" edge="1" parent="1">
          <mxGeometry width="50" height="50" relative="1" as="geometry">
            <mxPoint x="220" y="264.58" as="sourcePoint" />
            <mxPoint x="270" y="264.58" as="targetPoint" />
          </mxGeometry>
        </mxCell>
        <mxCell id="YhVgkfu6lUTvefnjvwKQ-41" value="" style="endArrow=none;dashed=1;html=1;dashPattern=1 3;strokeWidth=2;rounded=0;entryX=0;entryY=0.5;entryDx=0;entryDy=0;exitX=1;exitY=0.5;exitDx=0;exitDy=0;" edge="1" parent="1">
          <mxGeometry width="50" height="50" relative="1" as="geometry">
            <mxPoint x="220" y="144.57999999999998" as="sourcePoint" />
            <mxPoint x="270" y="144.57999999999998" as="targetPoint" />
          </mxGeometry>
        </mxCell>
        <mxCell id="YhVgkfu6lUTvefnjvwKQ-42" value="" style="endArrow=none;dashed=1;html=1;dashPattern=1 3;strokeWidth=2;rounded=0;entryX=0;entryY=0.5;entryDx=0;entryDy=0;exitX=1;exitY=0.5;exitDx=0;exitDy=0;" edge="1" parent="1">
          <mxGeometry width="50" height="50" relative="1" as="geometry">
            <mxPoint x="220" y="384.58" as="sourcePoint" />
            <mxPoint x="270" y="384.58" as="targetPoint" />
          </mxGeometry>
        </mxCell>
        <mxCell id="YhVgkfu6lUTvefnjvwKQ-44" value="" style="endArrow=classic;html=1;rounded=0;exitX=0.5;exitY=0;exitDx=0;exitDy=0;" edge="1" parent="1" source="YhVgkfu6lUTvefnjvwKQ-33" target="YhVgkfu6lUTvefnjvwKQ-8">
          <mxGeometry width="50" height="50" relative="1" as="geometry">
            <mxPoint x="420" y="240" as="sourcePoint" />
            <mxPoint x="440" y="220" as="targetPoint" />
          </mxGeometry>
        </mxCell>
        <mxCell id="YhVgkfu6lUTvefnjvwKQ-45" value="" style="endArrow=classic;html=1;rounded=0;exitX=0.5;exitY=0;exitDx=0;exitDy=0;" edge="1" parent="1" source="YhVgkfu6lUTvefnjvwKQ-8" target="YhVgkfu6lUTvefnjvwKQ-13">
          <mxGeometry width="50" height="50" relative="1" as="geometry">
            <mxPoint x="460" y="220" as="sourcePoint" />
            <mxPoint x="460" y="200" as="targetPoint" />
          </mxGeometry>
        </mxCell>
      </root>
    </mxGraphModel>
  </diagram>
</mxfile>
